<svg width="44" height="44" viewBox="0 0 44 44" fill="none" xmlns="http://www.w3.org/2000/svg">
<path d="M11.5369 25.6078C12.5332 25.6078 13.3408 26.4154 13.3408 27.4117C13.3408 28.408 12.5332 29.2156 11.5369 29.2156C10.5406 29.2156 9.73297 28.408 9.73297 27.4117C9.73297 26.4154 10.5406 25.6078 11.5369 25.6078Z" stroke="#F3F1F1" stroke-width="3.60786" stroke-linecap="round" stroke-linejoin="round"/>
<path d="M22.3605 25.6078C23.3568 25.6078 24.1644 26.4154 24.1644 27.4117C24.1644 28.408 23.3568 29.2156 22.3605 29.2156C21.3642 29.2156 20.5566 28.408 20.5566 27.4117C20.5566 26.4154 21.3642 25.6078 22.3605 25.6078Z" stroke="#F3F1F1" stroke-width="3.60786" stroke-linecap="round" stroke-linejoin="round"/>
<path d="M33.184 25.6078C34.1803 25.6078 34.988 26.4154 34.988 27.4117C34.988 28.408 34.1803 29.2156 33.184 29.2156C32.1878 29.2156 31.3801 28.408 31.3801 27.4117C31.3801 26.4154 32.1878 25.6078 33.184 25.6078Z" stroke="#F3F1F1" stroke-width="3.60786" stroke-linecap="round" stroke-linejoin="round"/>
<path d="M11.5369 14.7842C12.5332 14.7842 13.3408 15.5918 13.3408 16.5881C13.3408 17.5844 12.5332 18.392 11.5369 18.392C10.5406 18.392 9.73297 17.5844 9.73297 16.5881C9.73297 15.5918 10.5406 14.7842 11.5369 14.7842Z" stroke="#F3F1F1" stroke-width="3.60786" stroke-linecap="round" stroke-linejoin="round"/>
<path d="M22.3605 14.7842C23.3568 14.7842 24.1644 15.5918 24.1644 16.5881C24.1644 17.5844 23.3568 18.392 22.3605 18.392C21.3642 18.392 20.5566 17.5844 20.5566 16.5881C20.5566 15.5918 21.3642 14.7842 22.3605 14.7842Z" stroke="#F3F1F1" stroke-width="3.60786" stroke-linecap="round" stroke-linejoin="round"/>
<path d="M33.184 14.7842C34.1803 14.7842 34.9879 15.5918 34.9879 16.5881C34.9879 17.5844 34.1803 18.392 33.184 18.392C32.1877 18.392 31.3801 17.5844 31.3801 16.5881C31.3801 15.5918 32.1877 14.7842 33.184 14.7842Z" stroke="#F3F1F1" stroke-width="3.60786" stroke-linecap="round" stroke-linejoin="round"/>
</svg>
