<svg width="25" height="26" viewBox="0 0 25 26" fill="none" xmlns="http://www.w3.org/2000/svg">
<path d="M14.2112 3.23758H19.1563C20.614 3.23758 21.3428 3.23758 21.8996 3.52127C22.3893 3.7708 22.7875 4.16897 23.037 4.6587C23.3207 5.21546 23.3207 5.94428 23.3207 7.40194V19.895C23.3207 21.3526 23.3207 22.0815 23.037 22.6383C22.7875 23.128 22.3893 23.5262 21.8996 23.7757C21.3428 24.0593 20.614 24.0593 19.1563 24.0593H6.66327C5.20561 24.0593 4.47672 24.0593 3.92 23.7757C3.4303 23.5262 3.03208 23.128 2.78261 22.6383C2.49891 22.0815 2.49891 21.3526 2.49891 19.895V14.2991M8.35503 5.18962L4.67427 8.87043M14.52 11.3546L5.86814 2.70275C4.85177 1.68632 3.20373 1.68632 2.18737 2.70275C1.17087 3.71918 1.17087 5.36713 2.18737 6.38356L11.1173 15.3134C12.1084 16.3047 12.604 16.8002 13.1685 17.1943C13.6695 17.5442 14.21 17.8339 14.7785 18.0577C15.4192 18.3099 16.1062 18.4485 17.4803 18.7259L18.1152 18.8539L18.0535 18.4216C17.835 16.8921 17.7257 16.1273 17.4772 15.4132C17.2567 14.7796 16.9554 14.1772 16.5809 13.6206C16.1588 12.9934 15.6125 12.4471 14.52 11.3546Z" stroke="#F3F1F1" stroke-width="2.60272" stroke-linecap="round" stroke-linejoin="round"/>
</svg>
