<svg width="21" height="22" viewBox="0 0 21 22" fill="none" xmlns="http://www.w3.org/2000/svg">
<g clip-path="url(#clip0_32_11)">
<path fill-rule="evenodd" clip-rule="evenodd" d="M10.5 16.25C7.6005 16.25 5.25 13.8995 5.25 11C5.25 8.10056 7.6005 5.75 10.5 5.75C13.3994 5.75 15.75 8.10056 15.75 11C15.75 13.8995 13.3994 16.25 10.5 16.25ZM7.875 11C7.875 12.4497 9.05025 13.625 10.5 13.625C11.9497 13.625 13.125 12.4497 13.125 11C13.125 9.55025 11.9497 8.375 10.5 8.375C9.05025 8.375 7.875 9.55025 7.875 11Z" fill="#A23E48"/>
<path fill-rule="evenodd" clip-rule="evenodd" d="M10.5 21.5C4.70101 21.5 0 16.799 0 11C0 5.20098 4.70101 0.5 10.5 0.5C16.299 0.5 21 5.20098 21 11C21 16.799 16.299 21.5 10.5 21.5ZM2.625 11C2.625 15.3492 6.15076 18.875 10.5 18.875C14.8492 18.875 18.375 15.3492 18.375 11C18.375 6.65077 14.8492 3.125 10.5 3.125C6.15076 3.125 2.625 6.65077 2.625 11Z" fill="#A23E48"/>
</g>
<defs>
<clipPath id="clip0_32_11">
<rect width="21" height="21" fill="white" transform="matrix(1 0 0 -1 0 21.5)"/>
</clipPath>
</defs>
</svg>
